<svg width="22" height="20" viewBox="0 0 22 20" fill="none" xmlns="http://www.w3.org/2000/svg">
<path d="M2.00121 7.2636V7.2501C2.00119 5.91669 2.3961 4.61314 3.13611 3.50392C3.87612 2.3947 4.92808 1.5295 6.15927 1.01748C7.39046 0.505462 8.74571 0.369563 10.0541 0.626929C11.3624 0.884295 12.5652 1.5234 13.5107 2.4636C14.2546 2.09642 15.0856 1.94203 15.9118 2.01751C16.738 2.09299 17.5272 2.39538 18.1923 2.89129C18.8574 3.38719 19.3724 4.0573 19.6805 4.82758C19.9886 5.59785 20.0778 6.43831 19.9382 7.2561C20.1435 7.27515 20.3426 7.3363 20.5232 7.43573C20.7037 7.53517 20.8619 7.67075 20.9877 7.83402C21.1135 7.9973 21.2043 8.18475 21.2545 8.38469C21.3047 8.58463 21.3131 8.79276 21.2792 8.9961C20.6012 13.0746 18.9242 15.6561 16.2512 16.7421V17.7501C16.2512 18.3468 16.0142 18.9191 15.5922 19.3411C15.1702 19.763 14.5979 20.0001 14.0012 20.0001H8.00121C7.40447 20.0001 6.83218 19.763 6.41022 19.3411C5.98826 18.9191 5.75121 18.3468 5.75121 17.7501V16.7421C3.07821 15.6561 1.40121 13.0746 0.723211 8.9961C0.69049 8.79817 0.697806 8.59568 0.744728 8.40062C0.791649 8.20557 0.877223 8.02191 0.996383 7.86051C1.11554 7.69911 1.26587 7.56325 1.43846 7.46098C1.61106 7.35871 1.80242 7.2921 2.00121 7.2651V7.2636ZM3.50121 7.2501H5.00121C5.00121 6.25554 5.3963 5.30171 6.09956 4.59845C6.80282 3.89519 7.75665 3.5001 8.75121 3.5001C9.74577 3.5001 10.6996 3.89519 11.4029 4.59845C12.1061 5.30171 12.5012 6.25554 12.5012 7.2501H14.0012C14.0012 5.85771 13.4481 4.52235 12.4635 3.53779C11.479 2.55322 10.1436 2.0001 8.75121 2.0001C7.35882 2.0001 6.02347 2.55322 5.0389 3.53779C4.05433 4.52235 3.50121 5.85771 3.50121 7.2501ZM6.50121 7.2501H11.0012C11.0012 6.65336 10.7642 6.08107 10.3422 5.65911C9.92025 5.23715 9.34795 5.0001 8.75121 5.0001C8.15447 5.0001 7.58218 5.23715 7.16022 5.65911C6.73826 6.08107 6.50121 6.65336 6.50121 7.2501ZM16.8002 7.2501H18.4067C18.52 6.80681 18.5305 6.34351 18.4376 5.89552C18.3446 5.44753 18.1507 5.02667 17.8705 4.665C17.5902 4.30333 17.2312 4.01039 16.8206 3.80852C16.41 3.60665 15.9587 3.50116 15.5012 3.5001C15.1412 3.5001 14.7992 3.5631 14.4812 3.6786C14.7467 4.1046 14.9657 4.5636 15.1337 5.0451C15.4194 4.97424 15.7196 4.98883 15.9971 5.08706C16.2746 5.18529 16.5171 5.36284 16.6946 5.59767C16.8721 5.8325 16.9767 6.11427 16.9955 6.40803C17.0142 6.70178 16.9464 6.99458 16.8002 7.2501ZM14.7512 17.0001H7.25121V17.7501C7.25121 17.949 7.33023 18.1398 7.47088 18.2804C7.61153 18.4211 7.8023 18.5001 8.00121 18.5001H14.0012C14.2001 18.5001 14.3909 18.4211 14.5315 18.2804C14.6722 18.1398 14.7512 17.949 14.7512 17.7501V17.0001ZM6.72321 15.5001H15.2792C17.6582 14.7351 19.1642 12.5721 19.8002 8.7501H2.20221C2.83821 12.5721 4.34421 14.7351 6.72321 15.5001Z" fill="black"/>
</svg>
